<?xml version="1.0" encoding="iso-8859-1"?>
<!-- Generator: Adobe Illustrator 19.0.0, SVG Export Plug-In . SVG Version: 6.00 Build 0)  -->
<svg version="1.1" id="Camada_1" xmlns="http://www.w3.org/2000/svg" xmlns:xlink="http://www.w3.org/1999/xlink" x="0px" y="0px"
	 viewBox="0 0 495.42 67.176" style="enable-background:new 0 0 495.42 67.176;" xml:space="preserve">
<g id="XMLID_89_">
	<path id="XMLID_94_" style="fill:#009C3B;" d="M385.685,53.262h22.217v6.789h-30.721V11.113h8.504V53.262z"/>
	<path id="XMLID_93_" style="fill:#009C3B;" d="M443.026,38.204h-20.099v15.058h23.494v6.789h-31.998V11.113h31.763v6.857h-23.259
		v13.512h20.099L443.026,38.204L443.026,38.204z"/>
	<path id="XMLID_92_" style="fill:#009C3B;" d="M490.855,53.699c-1.771,2.308-4.224,4.056-7.361,5.243
		c-3.137,1.187-6.7,1.781-10.689,1.781c-4.101,0-7.731-0.93-10.89-2.79c-3.159-1.86-5.596-4.521-7.31-7.983
		c-1.714-3.462-2.605-7.501-2.672-12.117v-3.832c0-7.394,1.77-13.17,5.311-17.327c3.54-4.156,8.481-6.235,14.823-6.235
		c5.445,0,9.769,1.35,12.974,4.05c3.204,2.7,5.131,6.583,5.781,11.646h-8.336c-0.941-5.893-4.359-8.84-10.252-8.84
		c-3.81,0-6.705,1.371-8.689,4.114c-1.983,2.742-3.008,6.767-3.076,12.072v3.761c0,5.283,1.115,9.386,3.344,12.308
		c2.229,2.922,5.327,4.382,9.294,4.382c4.347,0,7.439-0.986,9.277-2.958v-9.579h-10.083v-6.453h18.554V53.699z"/>
</g>
<g id="XMLID_81_">
	<path id="XMLID_88_" style="fill:#002671;" d="M178.802,59.145V9.092h17.98c6.44,0,11.339,1.181,14.696,3.541
		c3.357,2.361,5.036,5.787,5.036,10.279c0,2.59-0.596,4.802-1.788,6.635c-1.192,1.834-2.945,3.186-5.26,4.057
		c2.613,0.687,4.618,1.971,6.016,3.85c1.398,1.879,2.097,4.172,2.097,6.875c0,4.905-1.553,8.589-4.658,11.053
		c-3.106,2.464-7.706,3.719-13.803,3.764L178.802,59.145L178.802,59.145z M190.868,29.959h6.291
		c2.635-0.023,4.514-0.505,5.638-1.448c1.122-0.942,1.684-2.333,1.684-4.172c0-2.115-0.607-3.637-1.822-4.569
		c-1.215-0.931-3.175-1.397-5.878-1.397h-5.913L190.868,29.959L190.868,29.959z M190.868,37.866v11.998h7.907
		c2.177,0,3.85-0.498,5.019-1.495c1.169-0.997,1.753-2.401,1.753-4.211c0-4.171-2.075-6.268-6.222-6.291L190.868,37.866
		L190.868,37.866z"/>
	<path id="XMLID_87_" style="fill:#002671;" d="M246.182,32.434l-3.816-0.275c-3.644,0-5.982,1.146-7.013,3.438v23.549h-11.585
		V21.949h10.863l0.378,4.778c1.948-3.644,4.663-5.466,8.147-5.466c1.238,0,2.315,0.138,3.232,0.413L246.182,32.434z"/>
	<path id="XMLID_86_" style="fill:#002671;" d="M270.28,59.145c-0.413-0.756-0.779-1.868-1.1-3.335
		c-2.131,2.681-5.111,4.022-8.938,4.022c-3.507,0-6.486-1.06-8.938-3.18c-2.452-2.119-3.678-4.784-3.678-7.993
		c0-4.033,1.49-7.082,4.469-9.144c2.979-2.063,7.311-3.094,12.995-3.094h3.575v-1.969c0-3.431-1.478-5.147-4.434-5.147
		c-2.75,0-4.125,1.359-4.125,4.076H248.52c0-3.593,1.53-6.512,4.589-8.756s6.961-3.365,11.705-3.365
		c4.744,0,8.491,1.158,11.241,3.472c2.75,2.315,4.16,5.489,4.229,9.522v16.467c0.046,3.415,0.572,6.028,1.581,7.838v0.584
		L270.28,59.145L270.28,59.145z M263.027,51.582c1.444,0,2.641-0.309,3.592-0.928c0.95-0.619,1.633-1.318,2.045-2.097V42.61h-3.369
		c-4.034,0-6.051,1.811-6.051,5.432c0,1.054,0.355,1.908,1.066,2.561C261.021,51.255,261.927,51.582,263.027,51.582z"/>
	<path id="XMLID_85_" style="fill:#002671;" d="M306.17,48.695c0-0.985-0.515-1.776-1.547-2.372
		c-1.031-0.596-2.991-1.215-5.879-1.856c-2.887-0.641-5.272-1.484-7.15-2.527c-1.879-1.043-3.312-2.309-4.297-3.799
		c-0.986-1.489-1.478-3.197-1.478-5.122c0-3.415,1.41-6.228,4.229-8.44c2.819-2.211,6.509-3.318,11.069-3.318
		c4.904,0,8.846,1.112,11.826,3.335c2.979,2.223,4.469,5.145,4.469,8.766h-11.62c0-2.979-1.57-4.469-4.71-4.469
		c-1.215,0-2.234,0.338-3.06,1.014c-0.825,0.676-1.237,1.519-1.237,2.526c0,1.031,0.504,1.868,1.512,2.51
		c1.008,0.642,2.618,1.169,4.83,1.581c2.211,0.412,4.154,0.906,5.827,1.478c5.592,1.925,8.388,5.375,8.388,10.348
		c0,3.392-1.507,6.153-4.521,8.285c-3.014,2.131-6.916,3.197-11.705,3.197c-3.186,0-6.028-0.573-8.526-1.719
		c-2.498-1.146-4.447-2.704-5.844-4.675c-1.398-1.971-2.097-4.045-2.097-6.222h10.829c0.046,1.719,0.619,2.974,1.719,3.764
		c1.1,0.791,2.51,1.186,4.228,1.186c1.581,0,2.767-0.321,3.558-0.963C305.775,50.563,306.17,49.726,306.17,48.695z"/>
	<path id="XMLID_84_" style="fill:#002671;" d="M322.672,12.358c0-1.65,0.596-3.002,1.788-4.057
		c1.192-1.054,2.739-1.581,4.641-1.581c1.902,0,3.449,0.527,4.641,1.581c1.191,1.055,1.788,2.406,1.788,4.057
		c0,1.65-0.596,3.003-1.788,4.056c-1.192,1.054-2.739,1.581-4.641,1.581c-1.903,0-3.45-0.527-4.641-1.581
		C323.267,15.36,322.672,14.008,322.672,12.358z M334.979,59.145h-11.62V21.949h11.62V59.145z"/>
	<path id="XMLID_82_" style="fill:#002671;" d="M354.148,23.405V6.495H342.78v52.404h11.368V41.359
		c-3.882-1.089-6.77-4.695-6.77-8.975C347.377,28.1,350.266,24.495,354.148,23.405z"/>
</g>
<g id="XMLID_72_">
	<path id="XMLID_79_" style="fill:#009C3B;" d="M9.46,38.83v19.653H5.384V10.228h16.438c5.015,0,8.975,1.282,11.881,3.844
		c2.905,2.563,4.358,6.087,4.358,10.572c0,4.529-1.398,8.026-4.192,10.489c-2.795,2.464-6.844,3.695-12.147,3.695L9.46,38.83
		L9.46,38.83z M9.46,35.383h12.362c3.955,0,6.971-0.94,9.048-2.821c2.076-1.881,3.115-4.503,3.115-7.867
		c0-3.341-1.033-6.002-3.099-7.983c-2.066-1.98-4.999-2.993-8.799-3.037H9.46V35.383z"/>
	<path id="XMLID_77_" style="fill:#009C3B;" d="M43.629,40.023c0-3.447,0.668-6.55,2.005-9.313c1.336-2.762,3.225-4.91,5.667-6.446
		c2.441-1.536,5.208-2.304,8.302-2.304c4.772,0,8.639,1.674,11.6,5.021c2.96,3.347,4.441,7.783,4.441,13.306v0.829
		c0,3.469-0.669,6.59-2.005,9.363c-1.337,2.773-3.22,4.911-5.651,6.413c-2.431,1.503-5.203,2.254-8.319,2.254
		c-4.751,0-8.612-1.674-11.583-5.021c-2.972-3.347-4.458-7.783-4.458-13.306L43.629,40.023L43.629,40.023z M47.606,41.116
		c0,4.287,1.11,7.805,3.331,10.556c2.221,2.751,5.131,4.126,8.733,4.126c3.579,0,6.479-1.376,8.7-4.126
		c2.22-2.751,3.331-6.38,3.331-10.887v-0.762c0-2.739-0.509-5.247-1.524-7.523c-1.016-2.276-2.442-4.038-4.275-5.286
		c-1.834-1.248-3.933-1.873-6.297-1.873c-3.535,0-6.419,1.387-8.65,4.159c-2.232,2.773-3.347,6.402-3.347,10.887L47.606,41.116
		L47.606,41.116z"/>
	<path id="XMLID_76_" style="fill:#009C3B;" d="M100.4,26.004c-0.84-0.154-1.735-0.232-2.685-0.232c-2.475,0-4.568,0.691-6.28,2.071
		c-1.712,1.381-2.933,3.386-3.662,6.015v24.624h-3.944V22.623h3.878l0.066,5.7c2.099-4.242,5.468-6.363,10.108-6.363
		c1.104,0,1.977,0.144,2.618,0.431L100.4,26.004z"/>
	<path id="XMLID_75_" style="fill:#009C3B;" d="M114.485,13.443v9.18h7.424v3.248h-7.424v23.921c0,1.991,0.359,3.473,1.077,4.446
		c0.718,0.973,1.916,1.46,3.596,1.46c0.663,0,1.734-0.11,3.215-0.331l0.166,3.22c-1.039,0.372-2.452,0.558-4.242,0.558
		c-2.718,0-4.695-0.79-5.932-2.37c-1.238-1.579-1.856-3.905-1.856-6.976V25.871h-6.595v-3.248h6.595v-9.18L114.485,13.443
		L114.485,13.443z"/>
	<path id="XMLID_74_" style="fill:#009C3B;" d="M152.764,58.482c-0.398-1.127-0.652-2.795-0.762-5.004
		c-1.392,1.812-3.165,3.21-5.319,4.193c-2.154,0.983-4.436,1.475-6.844,1.475c-3.447,0-6.236-0.961-8.368-2.883
		c-2.132-1.922-3.198-4.352-3.198-7.291c0-3.491,1.453-6.252,4.358-8.285c2.905-2.032,6.954-3.049,12.146-3.049h7.192V33.56
		c0-2.563-0.79-4.579-2.37-6.048c-1.58-1.469-3.883-2.204-6.91-2.204c-2.762,0-5.049,0.707-6.86,2.121
		c-1.812,1.414-2.718,3.115-2.718,5.104l-3.977-0.033c0-2.85,1.326-5.319,3.977-7.407c2.651-2.088,5.91-3.132,9.777-3.132
		c3.999,0,7.153,1,9.462,2.999c2.309,2,3.496,4.789,3.563,8.368v16.969c0,3.469,0.365,6.065,1.094,7.788v0.398L152.764,58.482
		L152.764,58.482z M140.303,55.632c2.652,0,5.021-0.641,7.109-1.922c2.088-1.281,3.607-2.994,4.557-5.137v-7.887h-7.092
		c-3.955,0.045-7.048,0.768-9.28,2.171c-2.232,1.403-3.347,3.331-3.347,5.783c0,2.011,0.746,3.679,2.237,5.004
		C135.978,54.969,137.917,55.632,140.303,55.632z"/>
	<path id="XMLID_73_" style="fill:#009C3B;" d="M170.925,58.482h-3.977V7.577h3.977V58.482z"/>
</g>
<path id="XMLID_71_" style="fill:#FFE11F;" d="M380.701,34.068l-22.234,17.861c-0.706,0.569-1.824,0.066-1.824-0.84v-9.392
	c5.268,0,9.315-4.17,9.315-9.313c0-5.145-4.047-9.315-9.315-9.315v-9.267c0-0.926,1.163-1.422,1.859-0.812l22.2,19.429
	C381.205,32.859,381.224,33.649,380.701,34.068z"/>
</svg>
