<?xml version="1.0" encoding="iso-8859-1"?>
<!-- Generator: Adobe Illustrator 19.0.0, SVG Export Plug-In . SVG Version: 6.00 Build 0)  -->
<svg version="1.1" id="Camada_1" xmlns="http://www.w3.org/2000/svg" xmlns:xlink="http://www.w3.org/1999/xlink" x="0px" y="0px"
	 viewBox="0 0 496.183 67.176" style="enable-background:new 0 0 496.183 67.176;" xml:space="preserve">
<g id="XMLID_104_">
	<path id="XMLID_107_" style="fill:#009C3B;" d="M397.453,11.888h8.211v33.462c0,4.567-1.418,8.194-4.252,10.881
		c-2.835,2.687-6.577,4.031-11.225,4.031c-4.953,0-8.776-1.256-11.469-3.769c-2.694-2.512-4.04-6.008-4.04-10.488h8.211
		c0,2.535,0.624,4.441,1.873,5.719c1.249,1.278,3.057,1.917,5.425,1.917c2.216,0,3.98-0.737,5.295-2.212
		c1.314-1.475,1.971-3.512,1.971-6.112L397.453,11.888L397.453,11.888z"/>
	<path id="XMLID_106_" style="fill:#009C3B;" d="M449.782,11.888v31.89c0,5.069-1.613,9.084-4.839,12.045
		c-3.226,2.961-7.522,4.441-12.887,4.441c-5.431,0-9.742-1.458-12.935-4.375c-3.193-2.917-4.79-6.965-4.79-12.143V11.888h8.211
		V43.81c0,3.191,0.804,5.627,2.411,7.309c1.607,1.683,3.975,2.524,7.103,2.524c6.343,0,9.515-3.365,9.515-10.095v-31.66H449.782z"/>
	<path id="XMLID_105_" style="fill:#009C3B;" d="M483.375,47.317c0-2.098-0.733-3.714-2.2-4.851
		c-1.466-1.136-4.111-2.283-7.934-3.441c-3.823-1.158-6.864-2.447-9.123-3.867c-4.323-2.731-6.484-6.293-6.484-10.685
		c0-3.845,1.558-7.014,4.676-9.504c3.117-2.491,7.163-3.736,12.137-3.736c3.302,0,6.245,0.612,8.83,1.835
		c2.585,1.224,4.616,2.966,6.093,5.228c1.477,2.262,2.216,4.769,2.216,7.522h-8.211c0-2.491-0.777-4.441-2.33-5.85
		c-1.553-1.409-3.774-2.114-6.663-2.114c-2.694,0-4.785,0.579-6.272,1.737c-1.488,1.158-2.232,2.775-2.232,4.851
		c0,1.748,0.804,3.207,2.411,4.375c1.607,1.169,4.257,2.305,7.95,3.409c3.692,1.104,6.658,2.36,8.895,3.769
		c2.237,1.409,3.877,3.027,4.92,4.851c1.043,1.825,1.564,3.961,1.564,6.407c0,3.977-1.515,7.14-4.545,9.488
		c-3.03,2.349-7.141,3.523-12.333,3.523c-3.433,0-6.587-0.639-9.465-1.917c-2.878-1.278-5.116-3.042-6.712-5.293
		c-1.597-2.25-2.395-4.872-2.395-7.866h8.244c0,2.709,0.89,4.807,2.672,6.293c1.781,1.486,4.333,2.229,7.657,2.229
		c2.867,0,5.023-0.584,6.468-1.753C482.652,50.786,483.375,49.24,483.375,47.317z"/>
</g>
<g id="XMLID_88_">
	<path id="XMLID_100_" style="fill:#002671;" d="M180.155,59.573V9.387h18.027c6.457,0,11.369,1.184,14.735,3.55
		c3.366,2.367,5.05,5.802,5.05,10.306c0,2.597-0.598,4.814-1.793,6.652c-1.195,1.839-2.953,3.194-5.274,4.067
		c2.62,0.689,4.63,1.976,6.032,3.86c1.401,1.884,2.103,4.183,2.103,6.894c0,4.918-1.557,8.612-4.67,11.082
		c-3.114,2.47-7.727,3.729-13.839,3.774L180.155,59.573L180.155,59.573z M192.254,30.309h6.308c2.642-0.023,4.526-0.507,5.653-1.452
		c1.125-0.945,1.689-2.339,1.689-4.183c0-2.12-0.609-3.647-1.827-4.581c-1.218-0.933-3.183-1.4-5.894-1.4h-5.929L192.254,30.309
		L192.254,30.309z M192.254,38.237v12.029h7.928c2.183,0,3.86-0.5,5.032-1.499c1.172-1,1.758-2.407,1.758-4.223
		c0-4.182-2.08-6.285-6.239-6.308L192.254,38.237L192.254,38.237z"/>
	<path id="XMLID_99_" style="fill:#002671;" d="M247.714,32.791l-3.826-0.276c-3.654,0-5.998,1.149-7.032,3.447v23.611H225.24
		V22.278h10.892l0.379,4.791c1.953-3.654,4.676-5.481,8.169-5.481c1.241,0,2.321,0.138,3.24,0.414L247.714,32.791z"/>
	<path id="XMLID_96_" style="fill:#002671;" d="M271.876,59.573c-0.414-0.758-0.781-1.873-1.103-3.344
		c-2.137,2.689-5.124,4.033-8.962,4.033c-3.516,0-6.503-1.063-8.962-3.188c-2.459-2.125-3.688-4.796-3.688-8.014
		c0-4.044,1.494-7.101,4.481-9.169c2.987-2.068,7.33-3.102,13.029-3.102h3.585v-1.974c0-3.44-1.482-5.161-4.446-5.161
		c-2.758,0-4.136,1.362-4.136,4.087h-11.616c0-3.603,1.534-6.529,4.602-8.779c3.068-2.249,6.98-3.374,11.736-3.374
		c4.757,0,8.514,1.161,11.271,3.481c2.758,2.321,4.171,5.504,4.24,9.547v16.511c0.046,3.424,0.574,6.044,1.585,7.859v0.586
		L271.876,59.573L271.876,59.573z M264.604,51.99c1.448,0,2.648-0.31,3.602-0.931c0.953-0.621,1.637-1.321,2.051-2.103v-5.963
		h-3.378c-4.045,0-6.067,1.816-6.067,5.446c0,1.057,0.356,1.913,1.069,2.568C262.592,51.663,263.5,51.99,264.604,51.99z"/>
	<path id="XMLID_95_" style="fill:#002671;" d="M307.861,49.095c0-0.988-0.517-1.781-1.551-2.378
		c-1.034-0.597-2.999-1.218-5.894-1.861c-2.895-0.643-5.286-1.488-7.169-2.533c-1.884-1.045-3.321-2.315-4.309-3.809
		c-0.988-1.493-1.482-3.205-1.482-5.136c0-3.424,1.413-6.244,4.24-8.462c2.826-2.217,6.526-3.326,11.099-3.326
		c4.917,0,8.87,1.115,11.857,3.344c2.987,2.229,4.481,5.159,4.481,8.789h-11.65c0-2.987-1.574-4.481-4.722-4.481
		c-1.218,0-2.24,0.339-3.068,1.017c-0.827,0.678-1.241,1.523-1.241,2.533c0,1.034,0.505,1.873,1.517,2.516
		c1.011,0.644,2.625,1.172,4.843,1.585c2.217,0.413,4.165,0.908,5.843,1.482c5.606,1.93,8.41,5.389,8.41,10.375
		c0,3.401-1.511,6.17-4.533,8.307c-3.022,2.137-6.934,3.206-11.737,3.206c-3.194,0-6.044-0.575-8.548-1.724
		c-2.505-1.149-4.458-2.711-5.86-4.688c-1.402-1.976-2.103-4.056-2.103-6.239h10.858c0.046,1.724,0.621,2.982,1.723,3.774
		c1.103,0.793,2.516,1.189,4.24,1.189c1.585,0,2.775-0.322,3.568-0.965C307.465,50.968,307.861,50.129,307.861,49.095z"/>
	<path id="XMLID_92_" style="fill:#002671;" d="M324.406,12.662c0-1.655,0.597-3.01,1.792-4.067
		c1.195-1.056,2.746-1.585,4.653-1.585c1.907,0,3.458,0.529,4.653,1.585c1.195,1.058,1.793,2.413,1.793,4.067
		c0,1.654-0.598,3.01-1.793,4.067c-1.195,1.057-2.746,1.585-4.653,1.585c-1.907,0-3.459-0.528-4.653-1.585
		C325.004,15.672,324.406,14.316,324.406,12.662z M336.746,59.573h-11.651V22.278h11.651V59.573z"/>
	<path id="XMLID_89_" style="fill:#002671;" d="M355.965,23.739V6.783h-11.398v52.543h11.398V41.74
		c-3.892-1.092-6.788-4.707-6.788-8.999C349.177,28.446,352.073,24.831,355.965,23.739z"/>
</g>
<g id="XMLID_72_">
	<path id="XMLID_85_" style="fill:#009C3B;" d="M10.365,39.204v19.705H6.278V10.527H22.76c5.029,0,8.999,1.285,11.913,3.855
		c2.913,2.57,4.37,6.103,4.37,10.6c0,4.541-1.401,8.047-4.203,10.517c-2.803,2.47-6.862,3.705-12.179,3.705L10.365,39.204
		L10.365,39.204z M10.365,35.748H22.76c3.965,0,6.989-0.943,9.072-2.829c2.082-1.886,3.124-4.515,3.124-7.888
		c0-3.35-1.036-6.018-3.107-8.004c-2.072-1.986-5.012-3-8.822-3.045h-12.66V35.748z"/>
	<path id="XMLID_81_" style="fill:#009C3B;" d="M44.624,40.4c0-3.456,0.67-6.568,2.011-9.337c1.34-2.769,3.234-4.923,5.682-6.463
		c2.448-1.54,5.222-2.31,8.324-2.31c4.785,0,8.661,1.678,11.63,5.034c2.968,3.356,4.453,7.804,4.453,13.342v0.831
		c0,3.478-0.67,6.608-2.011,9.387c-1.341,2.78-3.229,4.924-5.666,6.43c-2.437,1.507-5.217,2.26-8.341,2.26
		c-4.763,0-8.635-1.678-11.614-5.034c-2.98-3.356-4.469-7.803-4.469-13.342L44.624,40.4L44.624,40.4z M48.612,41.497
		c0,4.298,1.113,7.825,3.34,10.584c2.227,2.758,5.145,4.137,8.756,4.137c3.589,0,6.496-1.379,8.723-4.137
		c2.226-2.758,3.34-6.397,3.34-10.916V40.4c0-2.747-0.51-5.261-1.528-7.543c-1.019-2.282-2.448-4.048-4.287-5.3
		c-1.839-1.251-3.943-1.878-6.313-1.878c-3.545,0-6.436,1.391-8.673,4.17c-2.238,2.78-3.356,6.419-3.356,10.916L48.612,41.497
		L48.612,41.497z"/>
	<path id="XMLID_79_" style="fill:#009C3B;" d="M101.546,26.344c-0.842-0.155-1.739-0.233-2.692-0.233
		c-2.481,0-4.58,0.693-6.297,2.077c-1.717,1.385-2.941,3.395-3.672,6.031v24.689h-3.954V22.955h3.888l0.066,5.715
		c2.104-4.253,5.483-6.38,10.135-6.38c1.107,0,1.982,0.144,2.625,0.432L101.546,26.344z"/>
	<path id="XMLID_77_" style="fill:#009C3B;" d="M115.669,13.75v9.205h7.444v3.257h-7.444v23.985c0,1.996,0.36,3.482,1.08,4.458
		c0.719,0.976,1.922,1.463,3.605,1.463c0.664,0,1.739-0.111,3.223-0.332l0.166,3.228c-1.042,0.373-2.459,0.56-4.253,0.56
		c-2.725,0-4.708-0.792-5.948-2.376c-1.241-1.584-1.861-3.915-1.861-6.995V26.211h-6.613v-3.257h6.613V13.75H115.669z"/>
	<path id="XMLID_74_" style="fill:#009C3B;" d="M154.048,58.909c-0.399-1.13-0.654-2.802-0.764-5.018
		c-1.396,1.817-3.173,3.218-5.333,4.204c-2.16,0.985-4.447,1.478-6.862,1.478c-3.456,0-6.253-0.964-8.39-2.891
		c-2.138-1.927-3.207-4.364-3.207-7.31c0-3.5,1.456-6.269,4.37-8.307c2.913-2.038,6.972-3.057,12.178-3.057h7.211V33.92
		c0-2.57-0.792-4.591-2.376-6.064c-1.584-1.473-3.893-2.21-6.928-2.21c-2.769,0-5.062,0.709-6.879,2.127
		c-1.817,1.418-2.725,3.124-2.725,5.117l-3.988-0.033c0-2.858,1.329-5.333,3.988-7.427c2.658-2.093,5.926-3.14,9.803-3.14
		c4.009,0,7.172,1.003,9.487,3.007c2.315,2.005,3.506,4.802,3.572,8.39v17.014c0,3.478,0.366,6.081,1.096,7.809v0.399
		L154.048,58.909L154.048,58.909z M141.554,56.051c2.659,0,5.034-0.642,7.128-1.927c2.093-1.285,3.616-3.002,4.569-5.151v-7.908
		h-7.111c-3.966,0.045-7.067,0.77-9.304,2.176c-2.238,1.407-3.356,3.34-3.356,5.799c0,2.016,0.748,3.688,2.243,5.017
		C137.218,55.387,139.162,56.051,141.554,56.051z"/>
	<path id="XMLID_73_" style="fill:#009C3B;" d="M172.258,58.909h-3.988V7.868h3.988V58.909z"/>
</g>
<path id="XMLID_71_" style="fill:#FFE11F;" d="M382.59,34.43l-22.293,17.908c-0.708,0.57-1.829,0.066-1.829-0.842v-9.417
	c5.282,0,9.34-4.181,9.34-9.338c0-5.159-4.058-9.34-9.34-9.34v-9.291c0-0.929,1.166-1.426,1.864-0.814l22.259,19.48
	C383.095,33.218,383.114,34.009,382.59,34.43z"/>
</svg>
