<?xml version="1.0" encoding="iso-8859-1"?>
<!-- Generator: Adobe Illustrator 19.0.0, SVG Export Plug-In . SVG Version: 6.00 Build 0)  -->
<svg version="1.1" id="Camada_1" xmlns="http://www.w3.org/2000/svg" xmlns:xlink="http://www.w3.org/1999/xlink" x="0px" y="0px"
	 viewBox="0 0 498.473 64.122" style="enable-background:new 0 0 498.473 64.122;" xml:space="preserve">
<g id="XMLID_89_">
	<path id="XMLID_104_" style="fill:#009C3B;" d="M401.765,37.236h-19.488v14.685h22.779v6.621h-31.024V10.816h30.796v6.687h-22.551
		V30.68h19.488V37.236z"/>
	<path id="XMLID_101_" style="fill:#009C3B;" d="M411.769,58.542V10.816h14.013c4.193,0,7.913,0.94,11.161,2.819
		c3.248,1.88,5.763,4.545,7.544,7.998c1.781,3.453,2.672,7.408,2.672,11.866v2.393c0,4.523-0.896,8.501-2.688,11.932
		c-1.792,3.431-4.345,6.075-7.658,7.932c-3.313,1.858-7.11,2.786-11.39,2.786L411.769,58.542L411.769,58.542z M420.014,17.503
		v34.418h5.377c4.323,0,7.642-1.36,9.956-4.081c2.314-2.721,3.492-6.627,3.536-11.719v-2.655c0-5.179-1.119-9.134-3.356-11.866
		c-2.238-2.731-5.486-4.097-9.744-4.097C425.783,17.503,420.014,17.503,420.014,17.503z"/>
	<path id="XMLID_99_" style="fill:#009C3B;" d="M490.079,10.816V42.71c0,5.07-1.613,9.085-4.839,12.046
		c-3.227,2.962-7.523,4.442-12.889,4.442c-5.431,0-9.744-1.459-12.937-4.376c-3.194-2.917-4.79-6.965-4.79-12.145V10.816h8.212
		v31.927c0,3.191,0.804,5.627,2.412,7.31c1.608,1.683,3.976,2.524,7.104,2.524c6.344,0,9.516-3.365,9.516-10.096V10.816H490.079z"/>
</g>
<g id="XMLID_81_">
	<path id="XMLID_88_" style="fill:#002671;" d="M177.708,58.88V9.215h17.84c6.39,0,11.251,1.171,14.582,3.514
		c3.331,2.342,4.997,5.742,4.997,10.199c0,2.57-0.592,4.764-1.774,6.583c-1.182,1.82-2.922,3.161-5.219,4.025
		c2.592,0.682,4.582,1.956,5.969,3.82c1.387,1.865,2.081,4.139,2.081,6.822c0,4.867-1.541,8.522-4.622,10.967
		c-3.082,2.445-7.647,3.69-13.696,3.735L177.708,58.88L177.708,58.88z M189.681,29.92h6.242c2.615-0.023,4.479-0.502,5.594-1.437
		c1.114-0.935,1.671-2.315,1.671-4.14c0-2.098-0.603-3.609-1.808-4.533c-1.206-0.924-3.15-1.386-5.833-1.386h-5.867L189.681,29.92
		L189.681,29.92z M189.681,37.765V49.67h7.845c2.16,0,3.82-0.494,4.98-1.484c1.16-0.989,1.74-2.382,1.74-4.179
		c0-4.139-2.058-6.219-6.174-6.242L189.681,37.765L189.681,37.765z"/>
	<path id="XMLID_87_" style="fill:#002671;" d="M244.565,32.376l-3.786-0.273c-3.616,0-5.935,1.137-6.959,3.411V58.88h-11.495
		V21.972h10.779l0.375,4.741c1.933-3.616,4.627-5.424,8.084-5.424c1.228,0,2.297,0.136,3.207,0.409L244.565,32.376z"/>
	<path id="XMLID_86_" style="fill:#002671;" d="M268.477,58.88c-0.409-0.751-0.773-1.853-1.091-3.309
		c-2.115,2.661-5.071,3.991-8.869,3.991c-3.479,0-6.436-1.051-8.869-3.155c-2.433-2.103-3.65-4.747-3.65-7.931
		c0-4.002,1.478-7.027,4.435-9.073c2.956-2.047,7.254-3.07,12.894-3.07h3.547v-1.954c0-3.405-1.467-5.107-4.4-5.107
		c-2.729,0-4.093,1.348-4.093,4.045h-11.495c0-3.566,1.518-6.462,4.554-8.688c3.036-2.226,6.908-3.339,11.615-3.339
		c4.707,0,8.425,1.149,11.154,3.445c2.729,2.297,4.127,5.446,4.196,9.448v16.339c0.045,3.389,0.568,5.981,1.569,7.777v0.58
		L268.477,58.88L268.477,58.88z M261.279,51.376c1.433,0,2.62-0.307,3.564-0.921c0.943-0.614,1.62-1.307,2.03-2.081v-5.901h-3.343
		c-4.003,0-6.004,1.797-6.004,5.39c0,1.046,0.352,1.893,1.058,2.541C259.289,51.051,260.188,51.376,261.279,51.376z"/>
	<path id="XMLID_85_" style="fill:#002671;" d="M304.088,48.51c0-0.977-0.511-1.762-1.535-2.354
		c-1.023-0.591-2.968-1.205-5.833-1.842c-2.865-0.636-5.231-1.472-7.095-2.507c-1.865-1.034-3.286-2.291-4.264-3.769
		c-0.978-1.478-1.467-3.172-1.467-5.082c0-3.388,1.399-6.179,4.196-8.374c2.797-2.194,6.458-3.292,10.983-3.292
		c4.866,0,8.778,1.103,11.734,3.309c2.956,2.206,4.434,5.105,4.434,8.698h-11.529c0-2.956-1.558-4.434-4.673-4.434
		c-1.206,0-2.217,0.336-3.036,1.006c-0.819,0.671-1.228,1.507-1.228,2.507c0,1.023,0.5,1.854,1.501,2.49
		c1.001,0.637,2.598,1.16,4.793,1.569c2.194,0.409,4.121,0.899,5.782,1.467c5.548,1.91,8.323,5.333,8.323,10.267
		c0,3.366-1.496,6.106-4.485,8.22c-2.991,2.115-6.862,3.172-11.615,3.172c-3.161,0-5.981-0.569-8.46-1.706
		c-2.479-1.137-4.412-2.683-5.799-4.639c-1.387-1.956-2.081-4.013-2.081-6.174h10.745c0.045,1.706,0.614,2.951,1.705,3.735
		c1.092,0.785,2.49,1.177,4.196,1.177c1.569,0,2.746-0.318,3.531-0.955C303.696,50.364,304.088,49.534,304.088,48.51z"/>
	<path id="XMLID_84_" style="fill:#002671;" d="M320.461,12.456c0-1.637,0.591-2.979,1.774-4.025
		c1.182-1.045,2.717-1.569,4.605-1.569c1.887,0,3.422,0.523,4.605,1.569c1.182,1.047,1.774,2.388,1.774,4.025
		c0,1.637-0.592,2.979-1.774,4.025c-1.183,1.046-2.718,1.569-4.605,1.569c-1.888,0-3.423-0.523-4.605-1.569
		C321.052,15.435,320.461,14.093,320.461,12.456z M332.673,58.88h-11.53V21.972h11.53V58.88z"/>
	<path id="XMLID_82_" style="fill:#002671;" d="M351.693,23.418V6.638h-11.28v51.997h11.28V41.232
		c-3.852-1.081-6.718-4.659-6.718-8.906C344.975,28.076,347.841,24.499,351.693,23.418z"/>
</g>
<g id="XMLID_72_">
	<path id="XMLID_79_" style="fill:#009C3B;" d="M9.681,38.722v19.5H5.637V10.343h16.311c4.976,0,8.906,1.272,11.789,3.814
		c2.883,2.543,4.324,6.04,4.324,10.49c0,4.494-1.387,7.964-4.16,10.408c-2.774,2.445-6.791,3.667-12.052,3.667L9.681,38.722
		L9.681,38.722z M9.681,35.302h12.266c3.924,0,6.916-0.933,8.977-2.799c2.06-1.866,3.091-4.468,3.091-7.806
		c0-3.315-1.025-5.955-3.075-7.921c-2.05-1.965-4.96-2.969-8.731-3.013H9.681V35.302z"/>
	<path id="XMLID_77_" style="fill:#009C3B;" d="M43.585,39.906c0-3.42,0.663-6.5,1.99-9.24c1.326-2.74,3.2-4.872,5.623-6.396
		c2.422-1.524,5.168-2.286,8.238-2.286c4.735,0,8.572,1.661,11.509,4.982c2.937,3.321,4.407,7.723,4.407,13.203v0.822
		c0,3.442-0.663,6.539-1.99,9.29c-1.327,2.751-3.195,4.873-5.607,6.363c-2.412,1.491-5.163,2.236-8.254,2.236
		c-4.714,0-8.545-1.661-11.493-4.982c-2.949-3.321-4.423-7.722-4.423-13.203L43.585,39.906L43.585,39.906z M47.531,40.991
		c0,4.253,1.102,7.744,3.305,10.474c2.203,2.729,5.092,4.094,8.665,4.094c3.551,0,6.429-1.365,8.632-4.094
		c2.203-2.729,3.305-6.33,3.305-10.803v-0.756c0-2.718-0.505-5.206-1.513-7.465c-1.009-2.258-2.423-4.006-4.242-5.245
		c-1.82-1.238-3.903-1.858-6.248-1.858c-3.508,0-6.369,1.376-8.583,4.127c-2.214,2.751-3.321,6.352-3.321,10.802L47.531,40.991
		L47.531,40.991z"/>
	<path id="XMLID_76_" style="fill:#009C3B;" d="M99.916,25.996c-0.833-0.153-1.721-0.23-2.664-0.23
		c-2.455,0-4.533,0.686-6.232,2.055c-1.699,1.37-2.91,3.36-3.634,5.968v24.433h-3.913V22.641h3.847l0.066,5.656
		c2.082-4.209,5.426-6.314,10.03-6.314c1.096,0,1.962,0.143,2.598,0.428L99.916,25.996z"/>
	<path id="XMLID_75_" style="fill:#009C3B;" d="M113.891,13.533v9.109h7.366v3.223h-7.366V49.6c0,1.976,0.356,3.446,1.069,4.412
		c0.712,0.966,1.902,1.448,3.568,1.448c0.658,0,1.721-0.109,3.19-0.329l0.165,3.195c-1.031,0.369-2.433,0.554-4.209,0.554
		c-2.696,0-4.659-0.784-5.886-2.351c-1.228-1.567-1.842-3.875-1.842-6.922V25.864h-6.544v-3.223h6.544v-9.109L113.891,13.533
		L113.891,13.533z"/>
	<path id="XMLID_74_" style="fill:#009C3B;" d="M151.873,58.222c-0.395-1.118-0.647-2.773-0.756-4.966
		c-1.381,1.798-3.14,3.185-5.278,4.16c-2.137,0.975-4.401,1.463-6.791,1.463c-3.42,0-6.188-0.954-8.303-2.861
		c-2.116-1.907-3.173-4.318-3.173-7.234c0-3.464,1.441-6.204,4.324-8.221c2.882-2.017,6.9-3.025,12.052-3.025h7.136v-4.045
		c0-2.543-0.784-4.543-2.351-6.001c-1.568-1.458-3.853-2.187-6.856-2.187c-2.741,0-5.01,0.702-6.807,2.105
		c-1.798,1.403-2.696,3.091-2.696,5.064l-3.946-0.033c0-2.828,1.315-5.278,3.946-7.35c2.631-2.072,5.864-3.108,9.701-3.108
		c3.968,0,7.097,0.992,9.388,2.976c2.291,1.984,3.469,4.752,3.535,8.303V50.1c0,3.442,0.362,6.018,1.085,7.728v0.395L151.873,58.222
		L151.873,58.222z M139.508,55.394c2.631,0,4.982-0.636,7.054-1.907c2.072-1.271,3.579-2.97,4.522-5.097v-7.826h-7.037
		c-3.925,0.044-6.993,0.762-9.208,2.154c-2.214,1.392-3.321,3.305-3.321,5.738c0,1.995,0.74,3.65,2.22,4.965
		C135.217,54.737,137.141,55.394,139.508,55.394z"/>
	<path id="XMLID_73_" style="fill:#009C3B;" d="M169.893,58.222h-3.946V7.712h3.946V58.222z"/>
</g>
<path id="XMLID_71_" style="fill:#FFE11F;" d="M378.04,33.997l-22.061,17.722c-0.7,0.565-1.81,0.066-1.81-0.834v-9.319
	c5.227,0,9.243-4.138,9.243-9.241c0-5.105-4.016-9.243-9.243-9.243v-9.195c0-0.919,1.154-1.411,1.845-0.805l22.027,19.278
	C378.54,32.798,378.558,33.582,378.04,33.997z"/>
</svg>
