<?xml version="1.0" encoding="iso-8859-1"?>
<!-- Generator: Adobe Illustrator 19.0.0, SVG Export Plug-In . SVG Version: 6.00 Build 0)  -->
<svg version="1.1" id="Camada_1" xmlns="http://www.w3.org/2000/svg" xmlns:xlink="http://www.w3.org/1999/xlink" x="0px" y="0px"
	 viewBox="0 0 499.333 74" style="enable-background:new 0 0 499.333 74;" xml:space="preserve">
<g id="XMLID_1_">
	<path id="XMLID_2_" style="fill:#009C3B;" d="M404.667,54.303c-1.679,2.189-4.006,3.847-6.981,4.973
		c-2.976,1.126-6.355,1.69-10.137,1.69c-3.889,0-7.332-0.882-10.328-2.646c-2.997-1.764-5.308-4.288-6.933-7.571
		c-1.626-3.283-2.47-7.114-2.534-11.492v-3.634c0-7.013,1.678-12.49,5.037-16.433c3.358-3.942,8.043-5.913,14.058-5.913
		c5.164,0,9.265,1.281,12.305,3.841c3.039,2.561,4.866,6.243,5.483,11.046h-7.906c-0.893-5.589-4.134-8.384-9.723-8.384
		c-3.613,0-6.36,1.301-8.24,3.902c-1.881,2.601-2.853,6.418-2.917,11.449v3.567c0,5.01,1.057,8.902,3.172,11.672
		c2.114,2.771,5.053,4.156,8.814,4.156c4.123,0,7.055-0.935,8.798-2.805v-9.085h-9.563v-6.121h17.596V54.303z"/>
	<path id="XMLID_4_" style="fill:#009C3B;" d="M450.571,38.333c0,4.548-0.787,8.538-2.359,11.97
		c-1.573,3.432-3.82,6.068-6.742,7.906c-2.922,1.838-6.285,2.757-10.089,2.757c-3.761,0-7.114-0.919-10.058-2.757
		c-2.944-1.838-5.217-4.457-6.822-7.858c-1.605-3.4-2.418-7.321-2.439-11.763v-2.614c0-4.526,0.802-8.522,2.407-11.986
		c1.604-3.464,3.868-6.115,6.79-7.954c2.922-1.838,6.274-2.757,10.057-2.757c3.783,0,7.135,0.909,10.058,2.726
		c2.922,1.817,5.18,4.431,6.774,7.842s2.401,7.38,2.423,11.906L450.571,38.333L450.571,38.333z M442.506,35.91
		c0-5.143-0.972-9.085-2.917-11.826c-1.944-2.741-4.702-4.112-8.272-4.112c-3.485,0-6.211,1.366-8.176,4.096
		c-1.966,2.731-2.97,6.594-3.012,11.587v2.678c0,5.1,0.993,9.043,2.98,11.826c1.987,2.784,4.744,4.176,8.272,4.176
		c3.57,0,6.317-1.36,8.24-4.08c1.923-2.72,2.885-6.694,2.885-11.922L442.506,35.91L442.506,35.91z"/>
	<path id="XMLID_7_" style="fill:#009C3B;" d="M474.256,50.223l11.795-36.308h8.862l-16.704,46.413h-7.81l-16.64-46.413h8.83
		L474.256,50.223z"/>
</g>
<g id="XMLID_11_">
	<path id="XMLID_19_" style="fill:#002671;" d="M176.518,61.237v-48.23h17.325c6.205,0,10.926,1.138,14.161,3.412
		c3.235,2.275,4.853,5.576,4.853,9.904c0,2.496-0.575,4.627-1.723,6.393c-1.148,1.767-2.838,3.07-5.068,3.909
		c2.518,0.662,4.45,1.899,5.797,3.71c1.347,1.811,2.021,4.02,2.021,6.625c0,4.726-1.496,8.276-4.488,10.65
		c-2.993,2.374-7.426,3.583-13.3,3.627L176.518,61.237L176.518,61.237z M188.145,33.113h6.062c2.539-0.022,4.35-0.487,5.433-1.395
		c1.081-0.908,1.623-2.248,1.623-4.02c0-2.038-0.585-3.505-1.756-4.402c-1.171-0.897-3.059-1.346-5.664-1.346h-5.698L188.145,33.113
		L188.145,33.113z M188.145,40.732v11.561h7.619c2.098,0,3.71-0.48,4.836-1.441c1.126-0.961,1.689-2.313,1.689-4.058
		c0-4.019-1.999-6.04-5.996-6.062L188.145,40.732L188.145,40.732z"/>
	<path id="XMLID_23_" style="fill:#002671;" d="M241.444,35.498l-3.677-0.265c-3.511,0-5.764,1.104-6.758,3.313v22.691h-11.163
		V25.395h10.467l0.364,4.604c1.877-3.511,4.493-5.267,7.85-5.267c1.193,0,2.23,0.133,3.114,0.398L241.444,35.498z"/>
	<path id="XMLID_25_" style="fill:#002671;" d="M264.664,61.237c-0.398-0.729-0.751-1.8-1.06-3.213
		c-2.054,2.584-4.925,3.876-8.612,3.876c-3.379,0-6.25-1.021-8.613-3.064c-2.363-2.043-3.544-4.609-3.544-7.701
		c0-3.887,1.435-6.824,4.306-8.811c2.87-1.987,7.044-2.981,12.521-2.981h3.445v-1.897c0-3.306-1.424-4.959-4.273-4.959
		c-2.65,0-3.975,1.309-3.975,3.928h-11.163c0-3.463,1.474-6.275,4.422-8.437c2.948-2.161,6.708-3.243,11.279-3.243
		c4.571,0,8.182,1.115,10.832,3.346c2.65,2.231,4.008,5.289,4.075,9.175v15.867c0.044,3.291,0.552,5.808,1.524,7.553v0.563
		L264.664,61.237L264.664,61.237z M257.675,53.949c1.391,0,2.545-0.298,3.461-0.894c0.916-0.596,1.573-1.27,1.971-2.021v-5.731
		h-3.246c-3.887,0-5.83,1.745-5.83,5.234c0,1.016,0.342,1.839,1.027,2.468C255.742,53.634,256.615,53.949,257.675,53.949z"/>
	<path id="XMLID_30_" style="fill:#002671;" d="M299.247,51.166c0-0.949-0.497-1.711-1.491-2.286
		c-0.994-0.574-2.882-1.17-5.665-1.789c-2.782-0.618-5.08-1.43-6.89-2.435c-1.811-1.005-3.191-2.224-4.141-3.66
		c-0.95-1.435-1.424-3.08-1.424-4.936c0-3.29,1.358-6.001,4.075-8.132c2.716-2.131,6.272-3.197,10.666-3.197
		c4.726,0,8.524,1.071,11.395,3.213c2.87,2.142,4.306,4.958,4.306,8.447h-11.196c0-2.87-1.513-4.306-4.538-4.306
		c-1.171,0-2.153,0.326-2.948,0.977c-0.795,0.652-1.192,1.463-1.192,2.434c0,0.994,0.485,1.8,1.457,2.418
		c0.972,0.618,2.523,1.126,4.654,1.524c2.131,0.397,4.002,0.873,5.615,1.424c5.388,1.855,8.083,5.179,8.083,9.971
		c0,3.269-1.452,5.929-4.356,7.983c-2.904,2.054-6.664,3.081-11.279,3.081c-3.07,0-5.808-0.553-8.215-1.656
		c-2.407-1.104-4.285-2.606-5.631-4.505c-1.347-1.899-2.021-3.897-2.021-5.996h10.435c0.044,1.656,0.596,2.865,1.656,3.627
		c1.06,0.762,2.418,1.143,4.074,1.143c1.524,0,2.667-0.309,3.429-0.928C298.866,52.967,299.247,52.16,299.247,51.166z"/>
	<path id="XMLID_32_" style="fill:#002671;" d="M315.147,16.153c0-1.59,0.574-2.893,1.722-3.909
		c1.148-1.015,2.639-1.524,4.472-1.524c1.833,0,3.323,0.508,4.472,1.524c1.148,1.016,1.723,2.319,1.723,3.909
		c0,1.59-0.575,2.893-1.723,3.909c-1.149,1.016-2.639,1.524-4.472,1.524c-1.833,0-3.324-0.508-4.472-1.524
		C315.721,19.046,315.147,17.743,315.147,16.153z M327.006,61.237h-11.197V25.395h11.197V61.237z"/>
	<path id="XMLID_36_" style="fill:#002671;" d="M345.476,26.799V10.504h-10.954v50.495h10.954V44.098
		c-3.74-1.05-6.523-4.524-6.523-8.649C338.953,31.323,341.736,27.849,345.476,26.799z"/>
</g>
<g id="XMLID_46_">
	<path id="XMLID_83_" style="fill:#009C3B;" d="M13.345,41.661v18.937H9.417V14.102h15.839c4.833,0,8.649,1.235,11.448,3.704
		c2.799,2.47,4.199,5.865,4.199,10.187c0,4.364-1.347,7.734-4.04,10.107c-2.694,2.374-6.595,3.561-11.704,3.561L13.345,41.661
		L13.345,41.661z M13.345,38.34h11.911c3.811,0,6.717-0.906,8.718-2.718c2.001-1.812,3.002-4.339,3.002-7.58
		c0-3.219-0.995-5.783-2.986-7.692c-1.991-1.908-4.817-2.884-8.479-2.926H13.345V38.34z"/>
	<path id="XMLID_80_" style="fill:#009C3B;" d="M46.269,42.81c0-3.321,0.644-6.312,1.932-8.973c1.288-2.661,3.108-4.731,5.461-6.211
		c2.352-1.48,5.019-2.22,8-2.22c4.599,0,8.324,1.613,11.177,4.838c2.853,3.226,4.279,7.5,4.279,12.822v0.799
		c0,3.343-0.644,6.35-1.932,9.021c-1.288,2.672-3.103,4.732-5.445,6.179c-2.342,1.448-5.014,2.172-8.016,2.172
		c-4.577,0-8.298-1.613-11.161-4.838c-2.864-3.226-4.295-7.499-4.295-12.822L46.269,42.81L46.269,42.81z M50.101,43.864
		c0,4.13,1.07,7.52,3.209,10.171c2.14,2.65,4.944,3.976,8.415,3.976c3.449,0,6.243-1.325,8.383-3.976
		c2.139-2.651,3.21-6.148,3.21-10.491v-0.734c0-2.64-0.49-5.056-1.469-7.249c-0.979-2.193-2.353-3.891-4.119-5.094
		c-1.767-1.203-3.79-1.804-6.068-1.804c-3.406,0-6.185,1.336-8.335,4.008c-2.15,2.672-3.226,6.169-3.226,10.49V43.864z"/>
	<path id="XMLID_78_" style="fill:#009C3B;" d="M100.973,29.302c-0.809-0.149-1.672-0.224-2.587-0.224
		c-2.384,0-4.402,0.666-6.052,1.996c-1.65,1.331-2.826,3.263-3.529,5.796v23.727h-3.8V26.045h3.736l0.064,5.493
		c2.022-4.088,5.269-6.132,9.74-6.132c1.064,0,1.905,0.139,2.523,0.415L100.973,29.302z"/>
	<path id="XMLID_52_" style="fill:#009C3B;" d="M114.544,17.199v8.846h7.153v3.13h-7.153v23.05c0,1.919,0.346,3.347,1.038,4.284
		c0.691,0.938,1.847,1.406,3.465,1.406c0.639,0,1.671-0.106,3.098-0.319l0.16,3.103c-1.001,0.358-2.363,0.538-4.088,0.538
		c-2.619,0-4.524-0.761-5.716-2.283c-1.193-1.522-1.788-3.763-1.788-6.722V29.175h-6.355v-3.13h6.355v-8.846
		C110.712,17.199,114.544,17.199,114.544,17.199z"/>
	<path id="XMLID_49_" style="fill:#009C3B;" d="M151.429,60.598c-0.383-1.086-0.628-2.693-0.734-4.822
		c-1.341,1.746-3.05,3.093-5.125,4.04c-2.076,0.947-4.274,1.421-6.595,1.421c-3.321,0-6.009-0.926-8.063-2.778
		c-2.055-1.852-3.082-4.194-3.082-7.025c0-3.364,1.4-6.025,4.199-7.984c2.799-1.959,6.701-2.938,11.704-2.938h6.93v-3.928
		c0-2.469-0.761-4.412-2.283-5.828c-1.522-1.415-3.742-2.124-6.658-2.124c-2.662,0-4.865,0.682-6.611,2.044
		c-1.746,1.363-2.619,3.002-2.619,4.918l-3.832-0.032c0-2.746,1.277-5.125,3.832-7.137c2.555-2.012,5.695-3.018,9.421-3.018
		c3.853,0,6.892,0.964,9.117,2.89c2.224,1.927,3.369,4.615,3.433,8.063v16.35c0,3.343,0.351,5.844,1.054,7.505v0.383L151.429,60.598
		L151.429,60.598z M139.421,57.852c2.555,0,4.838-0.617,6.85-1.852c2.012-1.235,3.475-2.885,4.391-4.95v-7.6h-6.834
		c-3.811,0.043-6.791,0.74-8.942,2.092c-2.15,1.352-3.226,3.209-3.226,5.573c0,1.938,0.719,3.545,2.156,4.822
		C135.254,57.213,137.122,57.852,139.421,57.852z"/>
	<path id="XMLID_47_" style="fill:#009C3B;" d="M168.929,60.598h-3.832V11.547h3.832V60.598z"/>
</g>
<path id="XMLID_44_" style="fill:#FFE11F;" d="M371.063,37.073l-21.424,17.21c-0.68,0.548-1.758,0.064-1.758-0.81v-9.05
	c5.076,0,8.976-4.018,8.976-8.974c0-4.958-3.9-8.976-8.976-8.976v-8.929c0-0.893,1.12-1.371,1.792-0.782l21.391,18.721
	C371.548,35.908,371.566,36.669,371.063,37.073z"/>
</svg>
